<svg xmlns="http://www.w3.org/2000/svg" xmlns:xlink="http://www.w3.org/1999/xlink" width="500" zoomAndPan="magnify" viewBox="0 0 375 374.999991" height="500" preserveAspectRatio="xMidYMid meet" version="1.0"><defs><clipPath id="6c21f7e67c"><path d="M 13.8125 233 L 361.0625 233 L 361.0625 296.226562 L 13.8125 296.226562 Z M 13.8125 233 " clip-rule="nonzero"/></clipPath><clipPath id="429f28f367"><path d="M 13.8125 284 L 361.0625 284 L 361.0625 296.226562 L 13.8125 296.226562 Z M 13.8125 284 " clip-rule="nonzero"/></clipPath><clipPath id="2c3d660100"><path d="M 58 78.726562 L 318 78.726562 L 318 240 L 58 240 Z M 58 78.726562 " clip-rule="nonzero"/></clipPath></defs><rect x="-37.5" width="450" fill="#ffffff" y="-37.499999" height="449.999989" fill-opacity="1"/><rect x="-37.5" width="450" fill="#ffffff" y="-37.499999" height="449.999989" fill-opacity="1"/><path fill="#737373" d="M 66.167969 236.769531 L 311.035156 236.769531 C 311.972656 236.769531 312.871094 237.164062 313.503906 237.855469 L 358.851562 287.445312 C 360.8125 289.589844 359.289062 293.042969 356.382812 293.042969 L 18.578125 293.042969 C 15.632812 293.042969 14.125 289.511719 16.167969 287.386719 L 63.753906 237.796875 C 64.386719 237.140625 65.257812 236.769531 66.167969 236.769531 Z M 66.167969 236.769531 " fill-opacity="1" fill-rule="nonzero"/><g clip-path="url(#6c21f7e67c)"><path stroke-linecap="butt" transform="matrix(0.715576, 0, 0, 0.715576, 9.995518, 78.727005)" fill="none" stroke-linejoin="miter" d="M 78.499615 220.860534 L 420.695473 220.860534 C 422.005606 220.860534 423.261151 221.411882 424.14549 222.378105 L 487.517722 291.678689 C 490.258084 294.675619 488.129118 299.501276 484.067705 299.501276 L 11.993982 299.501276 C 7.87798 299.501276 5.770849 294.566441 8.625848 291.596806 L 75.126022 222.296222 C 76.010362 221.379128 77.227694 220.860534 78.499615 220.860534 Z M 78.499615 220.860534 " stroke="#000000" stroke-width="0.882" stroke-opacity="1" stroke-miterlimit="4"/></g><path fill="#000000" d="M 21.449219 295.945312 L 353.742188 295.945312 C 357.171875 295.945312 359.957031 293.164062 359.957031 289.730469 C 359.957031 288.773438 359.179688 287.996094 358.222656 287.996094 L 16.96875 287.996094 C 16.007812 287.996094 15.234375 288.773438 15.234375 289.730469 C 15.234375 293.164062 18.015625 295.945312 21.449219 295.945312 Z M 21.449219 295.945312 " fill-opacity="1" fill-rule="nonzero"/><g clip-path="url(#429f28f367)"><path stroke-linecap="butt" transform="matrix(0.715576, 0, 0, 0.715576, 9.995518, 78.727005)" fill="none" stroke-linejoin="miter" d="M 16.006264 303.55723 L 480.377497 303.55723 C 485.1704 303.55723 489.062587 299.670501 489.062587 294.872139 C 489.062587 293.534711 487.976269 292.448392 486.638841 292.448392 L 9.74492 292.448392 C 8.402033 292.448392 7.321173 293.534711 7.321173 294.872139 C 7.321173 299.670501 11.207902 303.55723 16.006264 303.55723 Z M 16.006264 303.55723 " stroke="#000000" stroke-width="0.882" stroke-opacity="1" stroke-miterlimit="4"/></g><path stroke-linecap="butt" transform="matrix(0.715576, 0, 0, 0.715576, 9.995518, 78.727005)" fill-opacity="1" fill="#000000" fill-rule="nonzero" stroke-linejoin="miter" d="M 38.769828 270.940373 L 81.037998 226.854393 L 417.103525 226.854393 L 458.334506 270.940373 Z M 38.769828 270.940373 " stroke="#000000" stroke-width="0.882" stroke-opacity="1" stroke-miterlimit="4"/><path stroke-linecap="butt" transform="matrix(0.715576, 0, 0, 0.715576, 9.995518, 78.727005)" fill-opacity="1" fill="#000000" fill-rule="nonzero" stroke-linejoin="miter" d="M 212.133195 289.102094 L 219.442646 274.286672 L 276.433438 274.286672 L 285.156741 289.102094 Z M 212.133195 289.102094 " stroke="#000000" stroke-width="0.882" stroke-opacity="1" stroke-miterlimit="4"/><path fill="#737373" d="M 68.542969 79.042969 L 307.273438 79.042969 C 307.691406 79.042969 308.105469 79.082031 308.519531 79.164062 C 308.929688 79.246094 309.328125 79.367188 309.714844 79.527344 C 310.097656 79.6875 310.464844 79.882812 310.816406 80.117188 C 311.164062 80.347656 311.484375 80.613281 311.78125 80.910156 C 312.074219 81.203125 312.339844 81.527344 312.574219 81.875 C 312.804688 82.222656 313 82.589844 313.160156 82.976562 C 313.320312 83.363281 313.441406 83.761719 313.523438 84.171875 C 313.605469 84.582031 313.648438 84.996094 313.648438 85.414062 L 313.648438 229.765625 C 313.648438 230.183594 313.605469 230.597656 313.523438 231.007812 C 313.441406 231.417969 313.320312 231.816406 313.160156 232.203125 C 313 232.589844 312.804688 232.957031 312.574219 233.304688 C 312.339844 233.652344 312.074219 233.972656 311.78125 234.269531 C 311.484375 234.566406 311.164062 234.832031 310.816406 235.0625 C 310.464844 235.296875 310.097656 235.492188 309.714844 235.652344 C 309.328125 235.8125 308.929688 235.933594 308.519531 236.015625 C 308.105469 236.097656 307.691406 236.136719 307.273438 236.136719 L 68.542969 236.136719 C 68.125 236.136719 67.710938 236.097656 67.300781 236.015625 C 66.890625 235.933594 66.492188 235.8125 66.105469 235.652344 C 65.71875 235.492188 65.351562 235.296875 65.003906 235.0625 C 64.65625 234.832031 64.332031 234.566406 64.035156 234.269531 C 63.742188 233.972656 63.476562 233.652344 63.246094 233.304688 C 63.011719 232.957031 62.816406 232.589844 62.65625 232.203125 C 62.496094 231.816406 62.375 231.417969 62.292969 231.007812 C 62.210938 230.597656 62.171875 230.183594 62.171875 229.765625 L 62.171875 85.414062 C 62.171875 84.996094 62.210938 84.582031 62.292969 84.171875 C 62.375 83.761719 62.496094 83.363281 62.65625 82.976562 C 62.816406 82.589844 63.011719 82.222656 63.246094 81.875 C 63.476562 81.527344 63.742188 81.203125 64.035156 80.910156 C 64.332031 80.613281 64.65625 80.347656 65.003906 80.117188 C 65.351562 79.882812 65.71875 79.6875 66.105469 79.527344 C 66.492188 79.367188 66.890625 79.246094 67.300781 79.164062 C 67.710938 79.082031 68.125 79.042969 68.542969 79.042969 Z M 68.542969 79.042969 " fill-opacity="1" fill-rule="nonzero"/><g clip-path="url(#2c3d660100)"><path stroke-linecap="butt" transform="matrix(0.715576, 0, 0, 0.715576, 9.995518, 78.727005)" fill="none" stroke-linejoin="miter" d="M 81.818619 0.441551 L 415.438564 0.441551 C 416.022665 0.441551 416.601307 0.49614 417.179949 0.610777 C 417.753132 0.725413 418.309939 0.894639 418.850369 1.118453 C 419.38534 1.342268 419.898475 1.615212 420.389775 1.942745 C 420.875616 2.26482 421.323245 2.636024 421.738121 3.0509 C 422.147537 3.460316 422.518742 3.913404 422.846275 4.399245 C 423.168349 4.885086 423.441294 5.398222 423.665108 5.938652 C 423.888923 6.479081 424.058148 7.035888 424.172785 7.609071 C 424.287422 8.182255 424.347469 8.760897 424.347469 9.344998 L 424.347469 211.072748 C 424.347469 211.656849 424.287422 212.235491 424.172785 212.808674 C 424.058148 213.381857 423.888923 213.938664 423.665108 214.479094 C 423.441294 215.019524 423.168349 215.532659 422.846275 216.0185 C 422.518742 216.504341 422.147537 216.95197 421.738121 217.366846 C 421.323245 217.781721 420.875616 218.152926 420.389775 218.475 C 419.898475 218.802533 419.38534 219.075478 418.850369 219.299292 C 418.309939 219.523106 417.753132 219.692332 417.179949 219.806969 C 416.601307 219.921605 416.022665 219.976194 415.438564 219.976194 L 81.818619 219.976194 C 81.234518 219.976194 80.655876 219.921605 80.082693 219.806969 C 79.509509 219.692332 78.952703 219.523106 78.412273 219.299292 C 77.871843 219.075478 77.358707 218.802533 76.872866 218.475 C 76.387025 218.152926 75.933938 217.781721 75.519062 217.366846 C 75.109646 216.95197 74.738441 216.504341 74.416367 216.0185 C 74.088833 215.532659 73.815889 215.019524 73.592075 214.479094 C 73.36826 213.938664 73.199035 213.381857 73.084398 212.808674 C 72.969761 212.235491 72.915173 211.656849 72.915173 211.072748 L 72.915173 9.344998 C 72.915173 8.760897 72.969761 8.182255 73.084398 7.609071 C 73.199035 7.035888 73.36826 6.479081 73.592075 5.938652 C 73.815889 5.398222 74.088833 4.885086 74.416367 4.399245 C 74.738441 3.913404 75.109646 3.460316 75.519062 3.0509 C 75.933938 2.636024 76.387025 2.26482 76.872866 1.942745 C 77.358707 1.615212 77.871843 1.342268 78.412273 1.118453 C 78.952703 0.894639 79.509509 0.725413 80.082693 0.610777 C 80.655876 0.49614 81.234518 0.441551 81.818619 0.441551 Z M 81.818619 0.441551 " stroke="#000000" stroke-width="0.882" stroke-opacity="1" stroke-miterlimit="4"/></g><path fill="#737373" d="M 188.917969 81.503906 C 188.917969 81.636719 188.890625 81.765625 188.839844 81.890625 C 188.789062 82.011719 188.71875 82.121094 188.621094 82.214844 C 188.527344 82.3125 188.417969 82.382812 188.292969 82.433594 C 188.171875 82.488281 188.042969 82.511719 187.910156 82.511719 C 187.773438 82.511719 187.644531 82.488281 187.523438 82.433594 C 187.398438 82.382812 187.289062 82.3125 187.195312 82.214844 C 187.101562 82.121094 187.027344 82.011719 186.976562 81.890625 C 186.925781 81.765625 186.898438 81.636719 186.898438 81.503906 C 186.898438 81.367188 186.925781 81.238281 186.976562 81.117188 C 187.027344 80.992188 187.101562 80.882812 187.195312 80.789062 C 187.289062 80.695312 187.398438 80.621094 187.523438 80.570312 C 187.644531 80.519531 187.773438 80.492188 187.910156 80.492188 C 188.042969 80.492188 188.171875 80.519531 188.292969 80.570312 C 188.417969 80.621094 188.527344 80.695312 188.621094 80.789062 C 188.71875 80.882812 188.789062 80.992188 188.839844 81.117188 C 188.890625 81.238281 188.917969 81.367188 188.917969 81.503906 Z M 188.917969 81.503906 " fill-opacity="1" fill-rule="nonzero"/><path fill="#000000" d="M 189.296875 81.503906 C 189.296875 81.6875 189.261719 81.867188 189.191406 82.035156 C 189.121094 82.207031 189.023438 82.355469 188.890625 82.484375 C 188.761719 82.617188 188.609375 82.714844 188.441406 82.785156 C 188.269531 82.855469 188.09375 82.890625 187.910156 82.890625 C 187.726562 82.890625 187.546875 82.855469 187.378906 82.785156 C 187.207031 82.714844 187.058594 82.617188 186.929688 82.484375 C 186.796875 82.355469 186.699219 82.207031 186.628906 82.035156 C 186.558594 81.867188 186.523438 81.6875 186.523438 81.503906 C 186.523438 81.320312 186.558594 81.144531 186.628906 80.972656 C 186.699219 80.804688 186.796875 80.652344 186.929688 80.523438 C 187.058594 80.390625 187.207031 80.292969 187.378906 80.222656 C 187.546875 80.152344 187.726562 80.117188 187.910156 80.117188 C 188.09375 80.117188 188.269531 80.152344 188.441406 80.222656 C 188.609375 80.292969 188.761719 80.390625 188.890625 80.523438 C 189.023438 80.652344 189.121094 80.804688 189.191406 80.972656 C 189.261719 81.144531 189.296875 81.320312 189.296875 81.503906 Z M 189.296875 81.503906 " fill-opacity="1" fill-rule="nonzero"/><path fill="#0d0d0d" d="M 189.042969 81.503906 C 189.042969 81.652344 189.015625 81.800781 188.957031 81.9375 C 188.902344 82.078125 188.820312 82.199219 188.710938 82.304688 C 188.605469 82.414062 188.484375 82.496094 188.34375 82.550781 C 188.203125 82.609375 188.058594 82.640625 187.910156 82.640625 C 187.757812 82.640625 187.613281 82.609375 187.476562 82.550781 C 187.335938 82.496094 187.210938 82.414062 187.105469 82.304688 C 187 82.199219 186.917969 82.078125 186.859375 81.9375 C 186.800781 81.800781 186.773438 81.652344 186.773438 81.503906 C 186.773438 81.351562 186.800781 81.207031 186.859375 81.070312 C 186.917969 80.929688 187 80.808594 187.105469 80.699219 C 187.210938 80.59375 187.335938 80.511719 187.476562 80.453125 C 187.613281 80.398438 187.757812 80.367188 187.910156 80.367188 C 188.058594 80.367188 188.203125 80.398438 188.34375 80.453125 C 188.484375 80.511719 188.605469 80.59375 188.710938 80.699219 C 188.820312 80.808594 188.902344 80.929688 188.957031 81.070312 C 189.015625 81.207031 189.042969 81.351562 189.042969 81.503906 Z M 189.042969 81.503906 " fill-opacity="1" fill-rule="nonzero"/><path stroke-linecap="butt" transform="matrix(0.715576, 0, 0, 0.715576, 9.995518, 78.727005)" fill-opacity="1" fill="#000000" fill-rule="nonzero" stroke-linejoin="miter" d="M 79.968056 8.198631 L 417.114443 8.198631 L 417.114443 210.630578 L 79.968056 210.630578 Z M 79.968056 8.198631 " stroke="#000000" stroke-width="0.882" stroke-opacity="1" stroke-miterlimit="4"/><path stroke-linecap="butt" transform="matrix(0.75, 0, 0, 0.75, 92.926191, 130.110944)" fill="none" stroke-linejoin="miter" d="M -0.000546597 5.997908 L 252.197387 5.997908 " stroke="#5271ff" stroke-width="12" stroke-opacity="1" stroke-miterlimit="4"/><path stroke-linecap="butt" transform="matrix(0.75, 0, 0, 0.75, 92.926191, 178.700539)" fill="none" stroke-linejoin="miter" d="M -0.000546597 5.998239 L 228.629677 5.998239 " stroke="#5271ff" stroke-width="12" stroke-opacity="1" stroke-miterlimit="4"/><path stroke-linecap="butt" transform="matrix(-0.75, 0, 0, -0.75, 186.336335, 163.176054)" fill="none" stroke-linejoin="miter" d="M 0.000530619 6.000364 L 124.563039 6.000364 " stroke="#5271ff" stroke-width="12" stroke-opacity="1" stroke-miterlimit="4"/><path stroke-linecap="butt" transform="matrix(-0.75, 0, 0, -0.75, 230.504301, 117.02477)" fill="none" stroke-linejoin="miter" d="M 0.000525751 6.001777 L 183.443246 6.001777 " stroke="#5271ff" stroke-width="12" stroke-opacity="1" stroke-miterlimit="4"/></svg>